<?xml version="1.0" encoding="utf-8"?>
<!-- Generator: Adobe Illustrator 16.0.0, SVG Export Plug-In . SVG Version: 6.00 Build 0)  -->
<!DOCTYPE svg PUBLIC "-//W3C//DTD SVG 1.1//EN" "http://www.w3.org/Graphics/SVG/1.1/DTD/svg11.dtd">
<svg version="1.1" id="play" xmlns="http://www.w3.org/2000/svg" xmlns:xlink="http://www.w3.org/1999/xlink" x="0px" y="0px"
	 width="64px" height="64px" viewBox="0 0 64 64" enable-background="new 0 0 64 64" xml:space="preserve">
<g>
	<g>
		<path d="M32.1,61.1c-0.451,0-0.875-0.173-1.195-0.488L3.033,33.185c-0.324-0.322-0.502-0.747-0.5-1.197
			c0.002-0.449,0.18-0.87,0.5-1.185L30.902,3.374c0.643-0.632,1.754-0.631,2.395,0l27.527,27.089
			c0.414,0.409,0.643,0.95,0.643,1.527c0,0.579-0.229,1.121-0.643,1.529L33.297,60.611C32.975,60.927,32.551,61.1,32.1,61.1z
			 M32.1,4.056c-0.143,0-0.273,0.055-0.375,0.153L3.855,31.638c-0.096,0.094-0.148,0.219-0.148,0.352
			c-0.002,0.135,0.053,0.264,0.15,0.361l27.869,27.426c0.199,0.194,0.547,0.195,0.748-0.001l27.527-27.093
			c0.188-0.186,0.291-0.432,0.291-0.693c0-0.26-0.104-0.507-0.291-0.691L32.475,4.209C32.373,4.111,32.24,4.056,32.1,4.056z"/>
	</g>
	<g>
		<path d="M29.402,42.489c-0.152,0-0.303-0.059-0.418-0.176c-0.227-0.23-0.223-0.602,0.008-0.828l9.697-9.525l-9.859-9.683
			c-0.23-0.228-0.234-0.598-0.008-0.829c0.227-0.23,0.596-0.234,0.828-0.007l10.287,10.101c0.113,0.11,0.176,0.261,0.176,0.418
			s-0.062,0.309-0.176,0.418L29.814,42.32C29.699,42.433,29.551,42.489,29.402,42.489z"/>
	</g>
</g>
</svg>
