<?xml version="1.0" encoding="utf-8"?>
<!-- Generator: Adobe Illustrator 16.0.0, SVG Export Plug-In . SVG Version: 6.00 Build 0)  -->
<!DOCTYPE svg PUBLIC "-//W3C//DTD SVG 1.1//EN" "http://www.w3.org/Graphics/SVG/1.1/DTD/svg11.dtd">
<svg version="1.1" id="play" xmlns="http://www.w3.org/2000/svg" xmlns:xlink="http://www.w3.org/1999/xlink" x="0px" y="0px"
	 width="64px" height="64px" viewBox="0 0 64 64" enable-background="new 0 0 64 64" xml:space="preserve">
<g>
	<path fill="#D7CA53" d="M56.699,35.216l-3.153-3.151l3.023-3.184c0.876-0.873,0.876-2.235,0-3.108L33.211,1.171
		c-0.621-0.622-1.615-0.622-2.236,0L7.116,26.144c-0.62,0.62-0.62,1.615,0,2.234l3.414,3.575c-1.989,2.118-3.288,3.638-3.288,3.638
		c-0.623,0.618-0.623,1.615,0,2.235l23.733,24.972c0.25,0.374,0.745,0.496,1.119,0.496c0.496,0,0.868-0.122,1.243-0.372
		l23.362-24.602C57.564,37.453,57.564,36.084,56.699,35.216z M7.985,27.388c-0.122-0.127-0.122-0.375,0-0.498L31.844,1.914
		c0.126-0.123,0.25-0.123,0.25-0.123c0.121,0,0.248,0,0.248,0.003l23.359,24.602c0.372,0.371,0.372,0.995,0,1.367L32.342,52.365
		c-0.248,0.124-0.372,0.124-0.498,0L7.985,27.388z M55.831,37.453l-23.363,24.6c-0.25,0.126-0.374,0.126-0.498,0L8.112,37.081
		c-0.127-0.25-0.127-0.496,0-0.621c0,0,1.188-1.509,3.26-3.626l19.604,20.523c0.25,0.374,0.745,0.492,1.119,0.492
		c0.496,0,0.868-0.246,1.117-0.368l19.487-20.524l3.133,3.127C56.199,36.454,56.199,37.081,55.831,37.453z"/>
	<polygon fill="#D7CA53" points="27.617,18.067 27.617,36.21 39.796,27.139 	"/>
</g>
</svg>
