<?xml version="1.0" encoding="utf-8"?>
<!-- Generator: Adobe Illustrator 16.0.0, SVG Export Plug-In . SVG Version: 6.00 Build 0)  -->
<!DOCTYPE svg PUBLIC "-//W3C//DTD SVG 1.1//EN" "http://www.w3.org/Graphics/SVG/1.1/DTD/svg11.dtd">
<svg version="1.1" id="play" xmlns="http://www.w3.org/2000/svg" xmlns:xlink="http://www.w3.org/1999/xlink" x="0px" y="0px"
	 width="64px" height="64px" viewBox="0 0 64 64" enable-background="new 0 0 64 64" xml:space="preserve">
<g>
	<g>
		<path d="M31.9,2.9c0.451,0,0.875,0.173,1.195,0.488l27.871,27.427c0.324,0.322,0.502,0.747,0.5,1.197
			c-0.002,0.449-0.18,0.87-0.5,1.185L33.098,60.626c-0.643,0.632-1.754,0.631-2.395,0L3.176,33.537
			c-0.414-0.409-0.643-0.95-0.643-1.527c0-0.579,0.229-1.12,0.643-1.528L30.703,3.389C31.025,3.073,31.449,2.9,31.9,2.9z
			 M31.9,59.943c0.143,0,0.273-0.055,0.375-0.153l27.869-27.429c0.096-0.094,0.148-0.219,0.148-0.352
			c0.002-0.135-0.053-0.264-0.15-0.361L32.273,4.224c-0.199-0.194-0.547-0.195-0.748,0.001L3.998,31.317
			c-0.188,0.186-0.291,0.432-0.291,0.693c0,0.26,0.104,0.507,0.291,0.691L31.525,59.79C31.627,59.889,31.76,59.943,31.9,59.943z"/>
	</g>
	<g>
		<path d="M34.598,21.511c0.152,0,0.303,0.059,0.418,0.176c0.227,0.23,0.223,0.602-0.008,0.828l-9.697,9.525l9.859,9.683
			c0.23,0.228,0.234,0.598,0.008,0.829c-0.227,0.23-0.596,0.234-0.828,0.007L24.062,32.458c-0.113-0.11-0.176-0.261-0.176-0.418
			s0.062-0.309,0.176-0.418l10.123-9.942C34.301,21.567,34.449,21.511,34.598,21.511z"/>
	</g>
</g>
</svg>
