<?xml version="1.0" encoding="utf-8"?>
<!-- Generator: Adobe Illustrator 16.0.0, SVG Export Plug-In . SVG Version: 6.00 Build 0)  -->
<!DOCTYPE svg PUBLIC "-//W3C//DTD SVG 1.1//EN" "http://www.w3.org/Graphics/SVG/1.1/DTD/svg11.dtd">
<svg version="1.1" id="play" xmlns="http://www.w3.org/2000/svg" xmlns:xlink="http://www.w3.org/1999/xlink" x="0px" y="0px"
	 width="64px" height="64px" viewBox="0 0 64 64" enable-background="new 0 0 64 64" xml:space="preserve">
<g>
	<path d="M52.397,32l3.856-3.998c0.842-0.843,0.842-2.17,0-3.013L33.234,1.131c-0.604-0.601-1.564-0.601-2.17,0l-23.5,24.223
		c-0.6,0.602-0.6,1.567,0,2.167l4.337,4.472l-4.337,4.449c-0.6,0.607-0.6,1.566,0,2.174l23.5,24.219
		c0.24,0.363,0.723,0.486,1.082,0.486c0.365,0,0.842-0.123,1.088-0.486L56.25,38.975c0.844-0.846,0.844-2.172,0-3.012L52.397,32z
		 M8.408,26.2l23.5-24.224c0.119-0.119,0.119-0.119,0.238-0.119c0.127,0,0.127,0,0.246,0.119l23.016,23.742
		c0.361,0.362,0.361,0.962,0,1.327l-23.016,23.86c-0.125,0.121-0.365,0.121-0.484,0l-23.5-24.226
		C8.285,26.562,8.285,26.323,8.408,26.2z M55.408,38.129L32.393,61.994c-0.125,0.117-0.365,0.117-0.484,0l-23.5-24.229
		c-0.119-0.121-0.119-0.361,0-0.482l4.326-4.433l18.33,18.899c0.24,0.359,0.723,0.479,1.082,0.479c0.365,0,0.842-0.119,1.088-0.363
		L51.57,32.857l3.838,3.945C55.77,37.168,55.77,37.773,55.408,38.129z"/>
	<g>
		<g>
			<g>
				<g>
					<defs>
						<path id="SVGID_1_" d="M32.115,14.754c-3.855,0-7.107,3.253-7.107,7.348c0,0.122,0,0.122,0,0.238
							c0,0.728,0.119,1.574,0.359,2.174c1.566,5.181,6.623,11.812,6.623,11.812s5.186-6.747,6.633-11.812
							c0.236-0.723,0.357-1.446,0.357-2.174c0-0.116,0-0.116,0-0.238C39.227,18.007,35.973,14.754,32.115,14.754z M32.115,25.719
							c-1.928,0-3.492-1.566-3.492-3.614c0-1.922,1.564-3.614,3.492-3.614c1.926,0,3.494,1.574,3.494,3.614
							C35.609,24.033,34.041,25.719,32.115,25.719z"/>
					</defs>
					<use xlink:href="#SVGID_1_"  overflow="visible"/>
					<clipPath id="SVGID_2_">
						<use xlink:href="#SVGID_1_"  overflow="visible"/>
					</clipPath>
					<rect x="18.98" y="8.728" clip-path="url(#SVGID_2_)" width="26.152" height="33.624"/>
				</g>
			</g>
		</g>
	</g>
</g>
</svg>
