<?xml version="1.0" encoding="utf-8"?>
<!-- Generator: Adobe Illustrator 16.0.0, SVG Export Plug-In . SVG Version: 6.00 Build 0)  -->
<!DOCTYPE svg PUBLIC "-//W3C//DTD SVG 1.1//EN" "http://www.w3.org/Graphics/SVG/1.1/DTD/svg11.dtd">
<svg version="1.1" id="play" xmlns="http://www.w3.org/2000/svg" xmlns:xlink="http://www.w3.org/1999/xlink" x="0px" y="0px"
	 width="64px" height="64px" viewBox="0 0 64 64" enable-background="new 0 0 64 64" xml:space="preserve">
<g id="About" sketch:type="MSPage">
	<g id="About_Entire_Page" transform="translate(-274.000000, -4673.000000)" sketch:type="MSArtboardGroup">
		<g id="Closer" transform="translate(0.000000, 4072.000000)" sketch:type="MSLayerGroup">
			<g id="Copy-_x2B_-Headline" transform="translate(213.000000, 501.000000)" sketch:type="MSShapeGroup">
				<g id="UI">
					<g id="work----at----media--_x2B_-Line-_x2B_-Selection_x5F_Module" transform="translate(0.000000, 3.000000)">
						<g id="Selection_Module" transform="translate(50.000000, 44.000000)">
							<path id="Imported-Layers" fill="#0C0A0A" d="M67.775,63.689c2.029-2.201,5.255,1.008,3.229,3.208
								c-11.248,12.645-22.585,25.109-33.925,37.666c-0.552,0.642-1.106,1.191-1.662,1.833c-0.827,0.915-2.394,0.824-3.226,0
								c-5.715-5.407-11.43-10.908-17.146-16.315c-2.121-2.013,1.107-5.313,3.227-3.204c5.163,4.859,10.233,9.715,15.396,14.662
								C45.101,88.894,56.438,76.336,67.775,63.689"/>
						</g>
					</g>
				</g>
			</g>
		</g>
	</g>
</g>
</svg>
