<?xml version="1.0" encoding="utf-8"?>
<!-- Generator: Adobe Illustrator 16.0.0, SVG Export Plug-In . SVG Version: 6.00 Build 0)  -->
<!DOCTYPE svg PUBLIC "-//W3C//DTD SVG 1.1//EN" "http://www.w3.org/Graphics/SVG/1.1/DTD/svg11.dtd">
<svg version="1.1" id="Layer_1" xmlns="http://www.w3.org/2000/svg" xmlns:xlink="http://www.w3.org/1999/xlink" x="0px" y="0px"
	 width="1287.375px" height="1098.061px" viewBox="0 0 1287.375 1098.061" enable-background="new 0 0 1287.375 1098.061"
	 xml:space="preserve">
<g id="Layer_1_2_">
	<g id="Layer_2" display="none">
	</g>
	<g id="Layer_1_1_">
		<path fill="#F4F4F4" d="M599.327,736.117c-14.281-14.281-14.281-37.436,0-51.717L1283.727,0L0,0.004v1098.057h961.271
			L599.327,736.117z"/>
	</g>
</g>
<g id="Layer_2_1_">
	<path fill="none" stroke="#4C4A4C" stroke-width="2" stroke-miterlimit="10" d="M609.289,0l-90.402,90.404
		c-2.629,2.63-2.629,6.893,0,9.522l259.161,259.162"/>
	<path fill="none" stroke="#4C4A4C" stroke-width="2" stroke-miterlimit="10" d="M609.289,0"/>
	<path fill="none" stroke="#4C4A4C" stroke-width="2" stroke-miterlimit="10" d="M789.312,0.004"/>
	<line fill="none" stroke="#4C4A4C" stroke-width="2" stroke-miterlimit="10" x1="1036.515" y1="247.208" x2="789.312" y2="0.004"/>
	<path fill="none" stroke="#4C4A4C" stroke-width="2" stroke-miterlimit="10" d="M508.679,618.896c2.629,2.629,6.893,2.629,9.522,0
		l358.177-358.18c2.63-2.628,2.63-6.892,0-9.521L700.729,75.546c-2.63-2.629-6.896-2.629-9.525,0L333.027,433.723
		c-2.629,2.63-2.629,6.893,0,9.523L508.679,618.896z"/>
	<path fill="none" stroke="#4C4A4C" stroke-width="2" stroke-miterlimit="10" d="M822.636,763.11"/>
	<path fill="none" stroke="#4C4A4C" stroke-width="2" stroke-miterlimit="10" d="M432.025,542.243l-98.392,98.392
		c-2.629,2.628-2.629,6.894,0,9.523l175.649,175.648c2.629,2.628,6.895,2.628,9.524,0l85.106-85.104"/>
	<path fill="none" stroke="#4C4A4C" stroke-width="2" stroke-miterlimit="10" d="M954.453,329.274l-78.071-78.072"/>
	
		<line fill="none" stroke="#4C4A4C" stroke-width="2" stroke-miterlimit="10" x1="331.057" y1="438.484" x2="331.662" y2="645.396"/>
	<path fill="none" stroke="#4C4A4C" stroke-width="2" stroke-miterlimit="10" d="M638.039,740.702"/>
</g>
</svg>
