<?xml version="1.0" encoding="utf-8"?>
<!-- Generator: Adobe Illustrator 16.0.0, SVG Export Plug-In . SVG Version: 6.00 Build 0)  -->
<!DOCTYPE svg PUBLIC "-//W3C//DTD SVG 1.1//EN" "http://www.w3.org/Graphics/SVG/1.1/DTD/svg11.dtd">
<svg version="1.1" id="Layer_1" xmlns="http://www.w3.org/2000/svg" xmlns:xlink="http://www.w3.org/1999/xlink" x="0px" y="0px"
	 width="500px" height="500px" viewBox="0 0 500 500" enable-background="new 0 0 500 500" xml:space="preserve">
<path fill="none" stroke="#010101" stroke-width="0.5" stroke-miterlimit="10" d="M246.029,12.532L10.138,246.828
	c-1.594,1.603-1.594,4.783,0,6.38l114.759,114.756c1.593,1.597,4.78,1.597,6.373,0l239.076-237.482L252.402,12.532
	C250.807,10.942,247.623,10.942,246.029,12.532z"/>
<path fill="none" stroke="#010101" stroke-width="0.5" stroke-miterlimit="10" d="M251.608,12.532l235.886,234.296
	c1.596,1.603,1.596,4.783,0,6.38L372.737,367.964c-1.59,1.597-4.783,1.597-6.373,0L127.285,130.482l117.946-117.95
	C246.825,10.942,249.613,10.942,251.608,12.532z"/>
<path fill="none" stroke="#010101" stroke-width="0.5" stroke-miterlimit="10" d="M246.029,128.892L10.138,363.187
	c-1.594,1.591-1.594,4.777,0,6.374l114.759,114.756c1.593,1.591,4.78,1.591,6.373,0l239.076-237.488L252.402,128.892
	C250.807,126.895,247.623,126.895,246.029,128.892z"/>
<path fill="none" stroke="#010101" stroke-width="0.5" stroke-miterlimit="10" d="M251.608,128.892l235.886,234.295
	c1.596,1.591,1.596,4.777,0,6.374L372.737,484.316c-1.59,1.591-4.783,1.591-6.373,0L127.285,246.828l117.946-117.937
	C246.825,126.895,249.613,126.895,251.608,128.892z"/>
</svg>
