<?xml version="1.0" encoding="utf-8"?>
<!-- Generator: Adobe Illustrator 16.0.0, SVG Export Plug-In . SVG Version: 6.00 Build 0)  -->
<!DOCTYPE svg PUBLIC "-//W3C//DTD SVG 1.1//EN" "http://www.w3.org/Graphics/SVG/1.1/DTD/svg11.dtd">
<svg version="1.1" id="Layer_1" xmlns="http://www.w3.org/2000/svg" xmlns:xlink="http://www.w3.org/1999/xlink" x="0px" y="0px"
	 width="89.92px" height="111.01px" viewBox="0 0 89.92 111.01" enable-background="new 0 0 89.92 111.01" xml:space="preserve">
<g>
	<path fill="#D7CA53" d="M88.769,61.208l-5.594-5.588l5.363-5.648c1.553-1.548,1.553-3.964,0-5.512L47.106,0.826
		c-1.102-1.102-2.864-1.102-3.966,0L0.824,45.119c-1.099,1.099-1.099,2.864,0,3.963l6.056,6.341
		c-3.528,3.756-5.832,6.453-5.832,6.453c-1.104,1.098-1.104,2.864,0,3.963l42.093,44.292c0.443,0.662,1.323,0.879,1.984,0.879
		c0.88,0,1.539-0.217,2.206-0.66l41.438-43.631C90.304,65.176,90.304,62.75,88.769,61.208z M2.365,47.325
		c-0.216-0.225-0.216-0.665,0-0.883L44.683,2.143c0.225-0.218,0.442-0.218,0.442-0.218c0.216,0,0.44,0,0.44,0.006l41.431,43.634
		c0.661,0.658,0.661,1.766,0,2.424L45.565,91.625c-0.44,0.219-0.658,0.219-0.883,0L2.365,47.325z M87.227,65.176l-41.437,43.63
		c-0.443,0.225-0.665,0.225-0.883,0L2.59,64.515c-0.225-0.443-0.225-0.88,0-1.099c0,0,2.106-2.678,5.782-6.433l34.769,36.402
		c0.443,0.661,1.323,0.874,1.984,0.874c0.88,0,1.539-0.438,1.981-0.656l34.566-36.402l5.554,5.548
		C87.882,63.405,87.882,64.515,87.227,65.176z"/>
	<polygon fill="#D7CA53" points="37.187,30.792 37.187,62.973 58.787,46.884 	"/>
</g>
</svg>
