<?xml version="1.0" encoding="utf-8"?>
<!-- Generator: Adobe Illustrator 16.0.0, SVG Export Plug-In . SVG Version: 6.00 Build 0)  -->
<!DOCTYPE svg PUBLIC "-//W3C//DTD SVG 1.1//EN" "http://www.w3.org/Graphics/SVG/1.1/DTD/svg11.dtd">
<svg version="1.1" id="Layer_1" xmlns="http://www.w3.org/2000/svg" xmlns:xlink="http://www.w3.org/1999/xlink" x="0px" y="0px"
	 width="500px" height="378px" viewBox="0 0 500 378" enable-background="new 0 0 500 378" xml:space="preserve">
<path fill="none" stroke="#555455" stroke-width="2" stroke-miterlimit="10" d="M374.078,241.729v5.424
	c0.002,1.805-1.455,3.262-3.26,3.26l-237.351-0.758c-1.799-0.003-3.256-1.46-3.26-3.26l-0.003-115.659
	c0.006-1.8,1.465-3.259,3.258-3.258l237.356,0.812c1.804-0.002,3.261,1.455,3.259,3.259l0.005,111"/>
<line fill="none" stroke="#555455" stroke-width="2" stroke-miterlimit="10" x1="247.886" y1="371.429" x2="372.921" y2="249.588"/>
<line fill="none" stroke="#555455" stroke-width="2" stroke-miterlimit="10" x1="131.435" y1="128.17" x2="251.373" y2="6.42"/>
<path fill="none" stroke="#555455" stroke-width="2" stroke-miterlimit="10" d="M248.996,363.568l-0.001,5.423
	c0.001,1.805-1.455,3.262-3.259,3.26L8.385,371.494c-1.799-0.004-3.256-1.461-3.26-3.26L5.122,252.575
	c0.007-1.801,1.466-3.259,3.258-3.259l237.356,0.812c1.805-0.001,3.261,1.455,3.259,3.26l0.006,110.999"/>
<path fill="none" stroke="#555455" stroke-width="2" stroke-miterlimit="10" d="M494.136,119.866v5.423
	c0.002,1.805-1.454,3.261-3.26,3.26l-237.351-0.757c-1.8-0.003-3.256-1.46-3.26-3.26L250.262,8.873
	c0.007-1.801,1.464-3.259,3.258-3.258l237.356,0.812c1.804-0.001,3.26,1.455,3.259,3.259l0.005,111"/>
</svg>
