<?xml version="1.0" encoding="utf-8"?>
<!-- Generator: Adobe Illustrator 16.0.0, SVG Export Plug-In . SVG Version: 6.00 Build 0)  -->
<!DOCTYPE svg PUBLIC "-//W3C//DTD SVG 1.1//EN" "http://www.w3.org/Graphics/SVG/1.1/DTD/svg11.dtd">
<svg version="1.1" id="Layer_1" xmlns="http://www.w3.org/2000/svg" xmlns:xlink="http://www.w3.org/1999/xlink" x="0px" y="0px"
	 width="476.381px" height="476.027px" viewBox="0 0 476.381 476.027" enable-background="new 0 0 476.381 476.027"
	 xml:space="preserve">
<line fill="none" stroke="#4C4B4C" stroke-width="2" stroke-miterlimit="10" x1="-693.812" y1="585.868" x2="-693.812" y2="718.639"/>
<line fill="none" stroke="#4C4B4C" stroke-width="2" stroke-miterlimit="10" x1="-693.812" y1="585.868" x2="-693.812" y2="718.639"/>
<line fill="none" stroke="#4C4B4C" stroke-width="2" stroke-miterlimit="10" x1="252.345" y1="4.385" x2="119.574" y2="4.385"/>
<path fill="none" stroke="#4C4B4C" stroke-width="2" stroke-miterlimit="10" d="M136.606,118.335c-1.687,1.687-1.688,4.422,0,6.108
	l229.781,229.781c1.687,1.688,4.422,1.688,6.108,0l112.686-112.683c1.687-1.689,1.687-4.424,0-6.112L255.4,5.651
	c-1.688-1.688-4.422-1.688-6.109-0.001L136.606,118.335z"/>
<path fill="none" stroke="#4C4B4C" stroke-width="2" stroke-miterlimit="10" d="M239.756,123.185c-1.688-1.688-4.422-1.688-6.109,0
	L3.867,352.966c-1.688,1.687-1.688,4.422,0,6.108L116.551,471.76c1.686,1.687,4.422,1.687,6.11,0l229.78-229.781
	c1.688-1.687,1.688-4.422,0-6.109L239.756,123.185z"/>
<path fill="none" stroke="#4C4B4C" stroke-width="2" stroke-miterlimit="10" d="M3.866,118.723c-1.687,1.687-1.686,4.422,0,6.109
	L231.903,352.87c1.688,1.687,6.166,3.432,7.854,1.743l112.684-112.684c1.688-1.688,1.688-4.423,0-6.11L122.661,6.038
	c-1.687-1.687-4.423-1.687-6.109,0L3.866,118.723z"/>
<line fill="none" stroke="#4C4B4C" stroke-width="2" stroke-miterlimit="10" x1="135.343" y1="121.429" x2="2.731" y2="121.429"/>
<path fill="none" stroke="#4C4B4C" stroke-width="2" stroke-miterlimit="10" d="M136.606,118.335c-1.687,1.687-1.688,4.422,0,6.108
	l229.781,229.781c1.687,1.688,4.422,1.688,6.108,0l112.686-112.683c1.687-1.689,1.687-4.424,0-6.112L255.4,5.651
	c-1.688-1.688-4.422-1.688-6.109-0.001L136.606,118.335z"/>
<path fill="none" stroke="#4C4B4C" stroke-width="2" stroke-miterlimit="10" d="M184.497,172.335L3.867,352.965
	c-1.688,1.687-1.688,4.423,0,6.11L116.55,471.759c1.688,1.688,4.422,1.688,6.11,0l63.559-63.56"/>
<path fill="none" stroke="#4C4B4C" stroke-width="2" stroke-miterlimit="10" d="M185.782,69.16L122.661,6.039
	c-1.688-1.687-4.422-1.688-6.111,0L3.867,118.723c-1.688,1.687-1.688,4.423,0,6.109l114.257,114.257"/>
<line fill="none" stroke="#4C4B4C" stroke-width="2" stroke-miterlimit="10" x1="135.343" y1="121.429" x2="2.731" y2="121.429"/>
<line fill="none" stroke="#4C4B4C" stroke-width="2" stroke-miterlimit="10" x1="369.724" y1="355.48" x2="2.57" y2="355.724"/>
</svg>
