<?xml version="1.0" encoding="utf-8"?>
<!-- Generator: Adobe Illustrator 16.0.0, SVG Export Plug-In . SVG Version: 6.00 Build 0)  -->
<!DOCTYPE svg PUBLIC "-//W3C//DTD SVG 1.1//EN" "http://www.w3.org/Graphics/SVG/1.1/DTD/svg11.dtd">
<svg version="1.1" id="Layer_1" xmlns="http://www.w3.org/2000/svg" xmlns:xlink="http://www.w3.org/1999/xlink" x="0px" y="0px"
	 width="759.5px" height="948.748px" viewBox="0 0 759.5 948.748" enable-background="new 0 0 759.5 948.748" xml:space="preserve">
<line fill="none" stroke="#4C4B4C" stroke-width="2" stroke-miterlimit="10" x1="189.703" y1="731.778" x2="189.703" y2="945.032"/>
<line fill="none" stroke="#4C4B4C" stroke-width="2" stroke-miterlimit="10" x1="565.726" y1="731.781" x2="566.476" y2="945.292"/>
<path fill="none" stroke="#4C4B4C" stroke-width="2" stroke-miterlimit="10" d="M676.057,462.403l79.75-79.749
	c2.714-2.712,2.714-7.11,0-9.823L386.293,3.315c-2.713-2.712-7.111-2.712-9.826,0l-181.209,181.21c-2.713,2.714-2.713,7.111,0,9.825
	l267.366,267.365"/>
<path fill="none" stroke="#4C4B4C" stroke-width="2" stroke-miterlimit="10" d="M184.727,729.746c2.713,2.714,7.112,2.714,9.824,0
	l369.515-369.513c2.712-2.714,2.712-7.112,0-9.824l-181.208-181.21c-2.713-2.714-7.113-2.714-9.826,0L3.516,538.712
	c-2.712,2.713-2.712,7.11,0,9.825L184.727,729.746z"/>
<path fill="none" stroke="#4C4B4C" stroke-width="2" stroke-miterlimit="10" d="M105.647,650.667L4.142,752.174
	c-2.713,2.712-2.713,7.112,0,9.824l181.209,181.21c2.712,2.712,7.113,2.712,9.825,0l289.81-289.81"/>
<path fill="none" stroke="#4C4B4C" stroke-width="2" stroke-miterlimit="10" d="M377.942,546.356l183.349,183.351
	c2.713,2.713,7.113,2.713,9.826,0l181.208-181.21c2.713-2.712,2.713-7.113,0-9.826L564.069,350.415"/>
<path fill="none" stroke="#4C4B4C" stroke-width="2" stroke-miterlimit="10" d="M378.607,759.776l183.434,183.43
	c2.712,2.716,7.111,2.716,9.823,0l177.102-176.872c2.714-2.713,4.108-5.065,4.108-14.16l1.284-208.548"/>
</svg>
