<?xml version="1.0" encoding="utf-8"?>
<!-- Generator: Adobe Illustrator 16.0.0, SVG Export Plug-In . SVG Version: 6.00 Build 0)  -->
<!DOCTYPE svg PUBLIC "-//W3C//DTD SVG 1.1//EN" "http://www.w3.org/Graphics/SVG/1.1/DTD/svg11.dtd">
<svg version="1.1" id="Layer_1" xmlns="http://www.w3.org/2000/svg" xmlns:xlink="http://www.w3.org/1999/xlink" x="0px" y="0px"
	 width="594.667px" height="476.666px" viewBox="0 0 594.667 476.666" enable-background="new 0 0 594.667 476.666"
	 xml:space="preserve">
<line fill="none" stroke="#4C4B4C" stroke-width="2" stroke-miterlimit="10" x1="136.357" y1="120.005" x2="3.746" y2="120.005"/>
<line fill="none" stroke="#4C4B4C" stroke-width="2" stroke-miterlimit="10" x1="136.355" y1="353.833" x2="3.584" y2="354.3"/>
<path fill="none" stroke="#4C4B4C" stroke-width="2" stroke-miterlimit="10" d="M303.867,422.443l49.592,49.592
	c1.687,1.688,4.422,1.688,6.108,0l229.781-229.78c1.688-1.688,1.688-4.422,0-6.11L476.664,123.46c-1.688-1.687-4.422-1.687-6.109,0
	l-166.26,166.26"/>
<path fill="none" stroke="#4C4B4C" stroke-width="2" stroke-miterlimit="10" d="M137.621,116.912c-1.688,1.687-1.688,4.422,0,6.108
	l229.78,229.781c1.688,1.687,4.423,1.687,6.109,0l112.685-112.684c1.688-1.687,1.688-4.423,0-6.11L256.415,4.227
	c-1.688-1.687-4.422-1.687-6.109,0L137.621,116.912z"/>
<path fill="none" stroke="#4C4B4C" stroke-width="2" stroke-miterlimit="10" d="M186.795,67.736L123.674,4.615
	c-1.687-1.687-4.423-1.687-6.109,0L4.88,117.299c-1.687,1.687-1.687,4.423,0,6.11l180.217,180.216"/>
<path fill="none" stroke="#4C4B4C" stroke-width="2" stroke-miterlimit="10" d="M251.661,237.061L137.645,351.076
	c-1.687,1.688-1.687,4.423,0,6.11L250.33,469.87c1.687,1.688,4.423,1.688,6.11,0l117.066-117.066"/>
<path fill="none" stroke="#4C4B4C" stroke-width="2" stroke-miterlimit="10" d="M118.947,237.475L4.881,351.542
	c-1.688,1.687-1.688,4.422,0,6.108l109.987,110.13c1.688,1.688,3.149,2.555,8.806,2.555l129.685,0.799"/>
</svg>
