<?xml version="1.0" encoding="utf-8"?>
<!-- Generator: Adobe Illustrator 16.0.0, SVG Export Plug-In . SVG Version: 6.00 Build 0)  -->
<!DOCTYPE svg PUBLIC "-//W3C//DTD SVG 1.1//EN" "http://www.w3.org/Graphics/SVG/1.1/DTD/svg11.dtd">
<svg version="1.1" id="Layer_1" xmlns="http://www.w3.org/2000/svg" xmlns:xlink="http://www.w3.org/1999/xlink" x="0px" y="0px"
	 width="1023px" height="1023px" viewBox="0 0 1023 1023" enable-background="new 0 0 1023 1023" xml:space="preserve">
<g>
	<path fill="none" stroke="#FFF" stroke-miterlimit="10" d="M507.279,420.059L127.626,797.131c-2.861,2.852-2.861,7.512,0,10.385
		L312,991.884c2.869,2.858,7.512,2.858,10.395,0l384.842-382.276L517.672,420.059C514.801,417.183,510.152,417.183,507.279,420.059z
		"/>
	<path fill="none" stroke="#FFF" stroke-miterlimit="10" d="M316.252,609.613l189.562-189.551c2.875-2.88,7.518-2.88,10.393,0
		l379.66,377.068c2.854,2.852,2.854,7.499,0,10.391L711.486,991.884c-2.867,2.858-7.52,2.858-10.393,0L511.348,803.4"/>
	<path fill="none" stroke="#FFF" stroke-miterlimit="10" d="M516.207,202.044l379.654,377.067c2.859,2.854,2.859,7.514,0,10.392
		L711.486,773.864c-2.867,2.868-7.514,2.868-10.393,0L316.252,391.592l189.562-189.547
		C508.689,199.163,513.332,199.163,516.207,202.044z"/>
	<line fill="none" stroke="#FFF" stroke-miterlimit="10" x1="705.908" y1="773.864" x2="705.908" y2="992.183"/>
	<line fill="none" stroke="#FFF" stroke-miterlimit="10" x1="124.898" y1="417.887" x2="124.898" y2="802.289"/>
	<line fill="none" stroke="#FFF" stroke-miterlimit="10" x1="898.102" y1="584.146" x2="898.102" y2="802.469"/>
	<path fill="none" stroke="#FFF" stroke-miterlimit="10" d="M386.775,538.992l320.467-318.31L517.672,31.131
		c-2.871-2.878-7.52-2.878-10.393,0L127.621,408.204c-2.855,2.852-2.855,7.506,0,10.383l184.373,184.364
		c2.881,2.867,7.518,2.867,10.4,0L386.775,538.992"/>
</g>
</svg>
